<mxfile host="Electron" modified="2023-12-12T21:55:42.583Z" agent="Mozilla/5.0 (Windows NT 10.0; Win64; x64) AppleWebKit/537.36 (KHTML, like Gecko) draw.io/22.1.2 Chrome/114.0.5735.289 Electron/25.9.4 Safari/537.36" etag="8E1cC31JIbjJ-9uxF_-K" version="22.1.2" type="device">
  <diagram name="Page-1" id="pi8_eCcCz5uKWHHMgNri">
    <mxGraphModel dx="1036" dy="606" grid="1" gridSize="10" guides="1" tooltips="1" connect="1" arrows="1" fold="1" page="1" pageScale="1" pageWidth="850" pageHeight="1100" math="0" shadow="0">
      <root>
        <mxCell id="0" />
        <mxCell id="1" parent="0" />
        <mxCell id="sjYT-M9q5PMHlx4X8GF--6" style="edgeStyle=orthogonalEdgeStyle;rounded=0;orthogonalLoop=1;jettySize=auto;html=1;entryX=0;entryY=0.5;entryDx=0;entryDy=0;" edge="1" parent="1" source="sjYT-M9q5PMHlx4X8GF--1" target="sjYT-M9q5PMHlx4X8GF--3">
          <mxGeometry relative="1" as="geometry" />
        </mxCell>
        <mxCell id="sjYT-M9q5PMHlx4X8GF--15" value="dead" style="edgeLabel;html=1;align=center;verticalAlign=middle;resizable=0;points=[];" vertex="1" connectable="0" parent="sjYT-M9q5PMHlx4X8GF--6">
          <mxGeometry x="0.0114" relative="1" as="geometry">
            <mxPoint as="offset" />
          </mxGeometry>
        </mxCell>
        <mxCell id="sjYT-M9q5PMHlx4X8GF--1" value="Start" style="rounded=1;whiteSpace=wrap;html=1;" vertex="1" parent="1">
          <mxGeometry x="120" y="230" width="120" height="60" as="geometry" />
        </mxCell>
        <mxCell id="sjYT-M9q5PMHlx4X8GF--7" style="edgeStyle=orthogonalEdgeStyle;rounded=0;orthogonalLoop=1;jettySize=auto;html=1;entryX=0;entryY=0.5;entryDx=0;entryDy=0;" edge="1" parent="1" source="sjYT-M9q5PMHlx4X8GF--3" target="sjYT-M9q5PMHlx4X8GF--4">
          <mxGeometry relative="1" as="geometry" />
        </mxCell>
        <mxCell id="sjYT-M9q5PMHlx4X8GF--16" value="continue = YES" style="edgeLabel;html=1;align=center;verticalAlign=middle;resizable=0;points=[];" vertex="1" connectable="0" parent="sjYT-M9q5PMHlx4X8GF--7">
          <mxGeometry x="-0.0827" relative="1" as="geometry">
            <mxPoint as="offset" />
          </mxGeometry>
        </mxCell>
        <mxCell id="sjYT-M9q5PMHlx4X8GF--12" style="edgeStyle=orthogonalEdgeStyle;rounded=0;orthogonalLoop=1;jettySize=auto;html=1;entryX=0.5;entryY=0;entryDx=0;entryDy=0;" edge="1" parent="1" source="sjYT-M9q5PMHlx4X8GF--3" target="sjYT-M9q5PMHlx4X8GF--11">
          <mxGeometry relative="1" as="geometry" />
        </mxCell>
        <mxCell id="sjYT-M9q5PMHlx4X8GF--18" value="&amp;nbsp;continue = NO" style="edgeLabel;html=1;align=center;verticalAlign=middle;resizable=0;points=[];" vertex="1" connectable="0" parent="sjYT-M9q5PMHlx4X8GF--12">
          <mxGeometry x="-0.105" y="4" relative="1" as="geometry">
            <mxPoint as="offset" />
          </mxGeometry>
        </mxCell>
        <mxCell id="sjYT-M9q5PMHlx4X8GF--3" value="End" style="rounded=1;whiteSpace=wrap;html=1;" vertex="1" parent="1">
          <mxGeometry x="380" y="230" width="120" height="60" as="geometry" />
        </mxCell>
        <mxCell id="sjYT-M9q5PMHlx4X8GF--8" style="edgeStyle=orthogonalEdgeStyle;rounded=0;orthogonalLoop=1;jettySize=auto;html=1;entryX=0.5;entryY=0;entryDx=0;entryDy=0;" edge="1" parent="1" source="sjYT-M9q5PMHlx4X8GF--4" target="sjYT-M9q5PMHlx4X8GF--3">
          <mxGeometry relative="1" as="geometry">
            <Array as="points">
              <mxPoint x="700" y="160" />
              <mxPoint x="440" y="160" />
            </Array>
          </mxGeometry>
        </mxCell>
        <mxCell id="sjYT-M9q5PMHlx4X8GF--17" value="dead" style="edgeLabel;html=1;align=center;verticalAlign=middle;resizable=0;points=[];" vertex="1" connectable="0" parent="sjYT-M9q5PMHlx4X8GF--8">
          <mxGeometry x="-0.114" y="1" relative="1" as="geometry">
            <mxPoint as="offset" />
          </mxGeometry>
        </mxCell>
        <mxCell id="sjYT-M9q5PMHlx4X8GF--4" value="Continue" style="rounded=1;whiteSpace=wrap;html=1;" vertex="1" parent="1">
          <mxGeometry x="650" y="230" width="120" height="60" as="geometry" />
        </mxCell>
        <mxCell id="sjYT-M9q5PMHlx4X8GF--10" style="edgeStyle=orthogonalEdgeStyle;rounded=0;orthogonalLoop=1;jettySize=auto;html=1;entryX=0.5;entryY=1;entryDx=0;entryDy=0;" edge="1" parent="1" source="sjYT-M9q5PMHlx4X8GF--5" target="sjYT-M9q5PMHlx4X8GF--1">
          <mxGeometry relative="1" as="geometry" />
        </mxCell>
        <mxCell id="sjYT-M9q5PMHlx4X8GF--21" value="start game" style="edgeLabel;html=1;align=center;verticalAlign=middle;resizable=0;points=[];" vertex="1" connectable="0" parent="sjYT-M9q5PMHlx4X8GF--10">
          <mxGeometry x="-0.3636" relative="1" as="geometry">
            <mxPoint x="33" as="offset" />
          </mxGeometry>
        </mxCell>
        <mxCell id="sjYT-M9q5PMHlx4X8GF--5" value="Reset" style="rounded=1;whiteSpace=wrap;html=1;" vertex="1" parent="1">
          <mxGeometry x="380" y="510" width="120" height="60" as="geometry" />
        </mxCell>
        <mxCell id="sjYT-M9q5PMHlx4X8GF--13" style="edgeStyle=orthogonalEdgeStyle;rounded=0;orthogonalLoop=1;jettySize=auto;html=1;entryX=0.5;entryY=0;entryDx=0;entryDy=0;" edge="1" parent="1" source="sjYT-M9q5PMHlx4X8GF--11" target="sjYT-M9q5PMHlx4X8GF--5">
          <mxGeometry relative="1" as="geometry" />
        </mxCell>
        <mxCell id="sjYT-M9q5PMHlx4X8GF--20" value="go to main menu" style="edgeLabel;html=1;align=center;verticalAlign=middle;resizable=0;points=[];" vertex="1" connectable="0" parent="sjYT-M9q5PMHlx4X8GF--13">
          <mxGeometry x="0.045" y="-2" relative="1" as="geometry">
            <mxPoint as="offset" />
          </mxGeometry>
        </mxCell>
        <mxCell id="sjYT-M9q5PMHlx4X8GF--14" style="edgeStyle=orthogonalEdgeStyle;rounded=0;orthogonalLoop=1;jettySize=auto;html=1;entryX=0.75;entryY=1;entryDx=0;entryDy=0;" edge="1" parent="1" source="sjYT-M9q5PMHlx4X8GF--11" target="sjYT-M9q5PMHlx4X8GF--1">
          <mxGeometry relative="1" as="geometry" />
        </mxCell>
        <mxCell id="sjYT-M9q5PMHlx4X8GF--19" value="play again" style="edgeLabel;html=1;align=center;verticalAlign=middle;resizable=0;points=[];" vertex="1" connectable="0" parent="sjYT-M9q5PMHlx4X8GF--14">
          <mxGeometry x="-0.2771" relative="1" as="geometry">
            <mxPoint as="offset" />
          </mxGeometry>
        </mxCell>
        <mxCell id="sjYT-M9q5PMHlx4X8GF--11" value="Game Over" style="rounded=1;whiteSpace=wrap;html=1;dashed=1;" vertex="1" parent="1">
          <mxGeometry x="380" y="370" width="120" height="60" as="geometry" />
        </mxCell>
      </root>
    </mxGraphModel>
  </diagram>
</mxfile>
